<?xml version="1.0" encoding="UTF-8"?>
<svg version="1.1" xmlns="http://www.w3.org/2000/svg" xmlns:xlink="http://www.w3.org/1999/xlink">
<!--SVG SMIL Animation Export (c) 2015 Animatron LLC--><!--Version 1.0 by squared9-->
<defs/><g id="id12503e66785475ecb0fb6202"><g id="id3a030a941ec3b1901b5fa456" transform="matrix(1.0,0.0,0.0,1.0,-0.0,-0.0)">
<g id="id97577096cf32c28b0a05c191" transform="matrix(2.366,0.0,0.0,2.366,79.98100000000001,92.04299999999999)"><set attributeName="opacity" to="1"/>
<path id="idfe34af0ec9ba00b93fcb600e" d="M 10.765,-14.375 L 10.375,-12.157 L 10.016,-12.065 C 8.965,-12.917 7.919,-13.343 6.879,-13.343 C 6.017,-13.343 5.335,-13.12 4.835,-12.675 C 4.335,-12.23 4.085,-11.715 4.085,-11.132 C 4.085,-10.562 4.328,-10.098 4.815,-9.739 C 5.302,-9.38 6.055,-8.977 7.074,-8.532 C 7.979,-8.138 8.695,-7.779 9.22,-7.457 C 9.745,-7.135 10.203,-6.711 10.593,-6.186 C 10.983,-5.661 11.178,-5.019 11.178,-4.26 C 11.178,-3.479 10.97,-2.753 10.554,-2.084 C 10.138,-1.413 9.524,-0.872 8.713,-0.461 C 7.901,-0.05 6.933,0.155 5.808,0.155 C 4.256,0.155 2.809,-0.188 1.466,-0.875 L 1.731,-3.234 L 2.041,-3.359 C 2.593,-2.798 3.243,-2.364 3.993,-2.058 C 4.743,-1.752 5.44,-1.599 6.084,-1.599 C 6.917,-1.599 7.604,-1.822 8.144,-2.267 C 8.685,-2.714 8.954,-3.258 8.954,-3.903 C 8.954,-4.495 8.711,-4.971 8.222,-5.33 C 7.735,-5.689 6.971,-6.107 5.931,-6.586 C 5.077,-6.97 4.374,-7.321 3.822,-7.638 C 3.27,-7.955 2.804,-8.377 2.425,-8.908 C 2.046,-9.439 1.857,-10.083 1.857,-10.842 C 1.857,-11.643 2.073,-12.364 2.504,-13.004 C 2.935,-13.644 3.544,-14.153 4.329,-14.533 C 5.114,-14.913 6.038,-15.102 7.1,-15.102 C 8.318,-15.102 9.536,-14.863 10.754,-14.386 L 10.754,-14.386 " style="fill: #f9f6f6; fill-opacity: 1.0; stroke: none" transform="matrix(1.0,0.0,0.0,1.0,124.0,63.0)"/>
<path id="id39e118d43165d027ea95bd0b" d="M 12,-1.734 L 11.799,0 L 2.706,0 L 2.798,-4.5 L 2.706,-14.937 L 11.846,-14.937 L 12.002,-14.768 L 11.817,-13.018 L 8.052,-13.143 L 4.927,-13.112 L 4.897,-8.583 L 7.865,-8.552 L 10.472,-8.644 L 10.628,-8.443 L 10.443,-6.663 L 7.693,-6.754 L 4.898,-6.724 L 4.868,-4.694 L 4.898,-1.835 L 7.834,-1.805 L 11.818,-1.93 L 12.003,-1.743 L 12.003,-1.743 " style="fill: #f9f6f6; fill-opacity: 1.0; stroke: none" transform="matrix(1.0,0.0,0.0,1.0,111.0,63.0)"/><path id="idaa62ff32b2419510c003a6eb" d="M 16.593,0 L 16.266,-4.562 L 15.455,-11.452 L 15.27,-11.452 L 10.99,-1.687 L 9.209,-1.687 L 5.163,-11.452 L 4.992,-11.452 L 4.212,-4.734 L 3.793,0 L 1.872,0 L 3.528,-14.937 L 6.137,-14.937 L 6.887,-12.687 L 10.15,-4.656 L 10.319,-4.656 L 13.739,-12.812 L 14.52,-14.937 L 17.065,-14.937 L 18.595,0 L 16.595,0 L 16.595,0 " style="fill: #f9f6f6; fill-opacity: 1.0; stroke: none" transform="matrix(1.0,0.0,0.0,1.0,91.0,63.0)"/>
<path id="idcbdb31b6ba6c066a9a76a3b8" d="M 4.921,0 L 2.703,0 L 2.795,-4.5 L 2.703,-14.937 L 4.953,-14.937 L 4.862,-4.687 L 4.924,0 L 4.924,0 " style="fill: #f9f6f6; fill-opacity: 1.0; stroke: none" transform="matrix(1.0,0.0,0.0,1.0,83.0,63.0)"/><path id="id3650dbf2e6028a0c31b24e0f" d="M 12,-12.875 L 9.205,-13.076 L 7.705,-13.076 L 7.627,-4.686 L 7.705,0.001 L 5.455,0.001 L 5.546,-4.499 L 5.484,-13.077 L 3.984,-13.077 L 1.141,-12.876 L 0.954,-13.077 L 1.141,-14.936 L 12.031,-14.936 L 12.156,-14.767 L 12,-12.877 L 12,-12.877 " style="fill: #f9f6f6; fill-opacity: 1.0; stroke: none" transform="matrix(1.0,0.0,0.0,1.0,70.0,63.0)"/>
<path id="id21bb63bd8dc3b85e50e431eb" d="M 12,-1.734 L 11.799,0 L 2.706,0 L 2.798,-4.5 L 2.706,-14.937 L 11.846,-14.937 L 12.002,-14.768 L 11.817,-13.018 L 8.052,-13.143 L 4.927,-13.112 L 4.897,-8.583 L 7.865,-8.552 L 10.472,-8.644 L 10.628,-8.443 L 10.443,-6.663 L 7.693,-6.754 L 4.898,-6.724 L 4.868,-4.694 L 4.898,-1.835 L 7.834,-1.805 L 11.818,-1.93 L 12.003,-1.743 L 12.003,-1.743 " style="fill: #f9f6f6; fill-opacity: 1.0; stroke: none" transform="matrix(1.0,0.0,0.0,1.0,52.0,63.0)"/>
<path id="id05db045228ff7633c54441fb" d="M 13.625,-0.546 L 13.594,-0.234 C 12.751,0.026 12.059,0.171 11.518,0.202 L 11.128,-0.032 C 9.609,-2.334 8.465,-4.141 7.696,-5.453 L 4.869,-5.439 L 4.869,-4.689 L 4.931,-0.002 L 2.713,-0.002 L 2.805,-4.502 L 2.713,-14.938 L 7.806,-14.969 C 9.387,-14.969 10.601,-14.601 11.449,-13.862 C 12.297,-13.123 12.72,-12.056 12.72,-10.662 C 12.72,-9.643 12.445,-8.733 11.894,-7.932 C 11.343,-7.131 10.568,-6.503 9.568,-6.045 C 10.795,-4.183 12.147,-2.355 13.624,-0.564 L 13.624,-0.564 M 7.703,-7.218 C 9.483,-7.718 10.373,-8.804 10.373,-10.48 C 10.373,-11.364 10.114,-12.024 9.595,-12.459 C 9.076,-12.894 8.291,-13.133 7.24,-13.174 L 4.929,-13.143 L 4.899,-7.3 L 7.711,-7.209 L 7.711,-7.209 " style="fill: #f9f6f6; fill-opacity: 1.0; stroke: none" transform="matrix(1.0,0.0,0.0,1.0,37.0,63.0)"/>
<path id="id8a310176e1454a216c7c6546" d="M 13.601,-13.203 C 14.771,-11.922 15.354,-10.111 15.354,-7.768 C 15.354,-5.227 14.729,-3.264 13.479,-1.879 C 12.229,-0.494 10.444,0.198 8.123,0.198 C 5.967,0.198 4.298,-0.455 3.116,-1.762 C 1.934,-3.068 1.343,-4.928 1.343,-7.344 C 1.343,-9.821 1.973,-11.737 3.233,-13.089 C 4.492,-14.441 6.272,-15.117 8.574,-15.117 C 10.75,-15.117 12.423,-14.477 13.593,-13.196 L 13.593,-13.196 M 4.836,-11.876 C 4.067,-10.976 3.684,-9.557 3.684,-7.62 C 3.684,-5.537 4.063,-4.029 4.822,-3.092 C 5.581,-2.155 6.742,-1.687 8.303,-1.687 C 9.896,-1.687 11.082,-2.145 11.863,-3.06 C 12.644,-3.975 13.034,-5.412 13.034,-7.37 C 13.034,-9.39 12.65,-10.87 11.881,-11.812 C 11.112,-12.754 9.942,-13.225 8.37,-13.225 C 6.787,-13.225 5.611,-12.777 4.842,-11.877 L 4.842,-11.877 " style="fill: #f9f6f6; fill-opacity: 1.0; stroke: none" transform="matrix(1.0,0.0,0.0,1.0,20.0,63.0)"/>
<path id="id13270a01bac15d57ff648225" d="M 16.593,0 L 16.266,-4.562 L 15.455,-11.452 L 15.27,-11.452 L 10.99,-1.687 L 9.209,-1.687 L 5.163,-11.452 L 4.992,-11.452 L 4.212,-4.734 L 3.793,0 L 1.872,0 L 3.528,-14.937 L 6.137,-14.937 L 6.887,-12.687 L 10.15,-4.656 L 10.319,-4.656 L 13.739,-12.812 L 14.52,-14.937 L 17.065,-14.937 L 18.595,0 L 16.595,0 L 16.595,0 " style="fill: #f9f6f6; fill-opacity: 1.0; stroke: none" transform="matrix(1.0,0.0,0.0,1.0,0.0,63.0)"/>
<path id="id70838938c3d4cde5a3e0fc05" d="M 11.015,-12.984 L 10.83,-12.815 L 8.644,-12.984 L 4.207,-12.984 L 4.082,-8.313 L 5.971,-7.924 C 7.833,-7.519 9.152,-6.939 9.927,-6.186 C 10.702,-5.433 11.089,-4.437 11.089,-3.199 C 11.089,-1.991 10.785,-0.929 10.176,-0.013 C 9.567,0.903 8.719,1.621 7.631,2.139 C 6.543,2.659 5.313,2.919 3.938,2.919 C 3.095,2.919 2.153,2.823 1.112,2.626 L 0.941,0.533 L 1.144,0.317 C 2.258,0.796 3.346,1.034 4.408,1.034 C 5.77,1.034 6.85,0.68 7.646,-0.028 C 8.441,-0.736 8.838,-1.663 8.838,-2.808 C 8.838,-3.703 8.534,-4.421 7.925,-4.962 C 7.316,-5.503 6.324,-5.903 4.949,-6.162 L 2.403,-6.63 L 2.186,-6.846 L 2.342,-14.673 L 2.732,-14.999 L 4.309,-14.939 L 8.371,-14.939 L 11.121,-15.064 L 11.246,-14.879 L 11.012,-12.989 L 11.012,-12.989 " style="fill: #f9f6f6; fill-opacity: 1.0; stroke: none" transform="matrix(1.0,0.0,0.0,1.0,170.0,27.0)"/>
<path id="id1883af543b84ed3c373fccd6" d="M 12,-12.875 L 9.205,-13.076 L 7.705,-13.076 L 7.627,-4.686 L 7.705,0.001 L 5.455,0.001 L 5.546,-4.499 L 5.484,-13.077 L 3.984,-13.077 L 1.141,-12.876 L 0.954,-13.077 L 1.141,-14.936 L 12.031,-14.936 L 12.156,-14.767 L 12,-12.877 L 12,-12.877 " style="fill: #f9f6f6; fill-opacity: 1.0; stroke: none" transform="matrix(1.0,0.0,0.0,1.0,152.0,27.0)"/>
<path id="ideda2f513f1f150e80834ec56" d="M 12.093,0 L 11.734,-1.625 L 10.953,-3.843 L 7.376,-3.874 L 4.206,-3.843 L 3.394,-1.734 L 2.975,0 L 0.757,0 L 6.522,-14.937 L 9.099,-14.937 L 14.349,0 L 12.099,0 L 12.099,0 M 7.834,-12.75 L 7.663,-12.75 L 4.929,-5.672 L 7.569,-5.642 L 10.319,-5.672 L 7.835,-12.75 L 7.835,-12.75 " style="fill: #f9f6f6; fill-opacity: 1.0; stroke: none" transform="matrix(1.0,0.0,0.0,1.0,137.0,27.0)"/>
<path id="idad3dc9fd0bbd27668bb80e1c" d="M 12,-1.734 L 11.799,0 L 2.706,0 L 2.798,-4.5 L 2.706,-14.937 L 11.846,-14.937 L 12.002,-14.768 L 11.817,-13.018 L 8.052,-13.143 L 4.927,-13.112 L 4.897,-8.583 L 7.865,-8.552 L 10.472,-8.644 L 10.628,-8.443 L 10.443,-6.663 L 7.693,-6.754 L 4.898,-6.724 L 4.868,-4.694 L 4.898,-1.835 L 7.834,-1.805 L 11.818,-1.93 L 12.003,-1.743 L 12.003,-1.743 " style="fill: #f9f6f6; fill-opacity: 1.0; stroke: none" transform="matrix(1.0,0.0,0.0,1.0,124.0,27.0)"/>
<path id="id33a8a3015f7195413c67ff47" d="M 11.445,-13.828 C 12.293,-13.069 12.716,-11.971 12.716,-10.535 C 12.716,-8.859 12.184,-7.545 11.117,-6.592 C 10.05,-5.639 8.576,-5.163 6.692,-5.163 L 4.864,-5.163 L 4.864,-4.695 L 4.926,-0.008 L 2.708,-0.008 L 2.8,-4.508 L 2.708,-14.945 L 7.801,-14.976 C 9.384,-14.976 10.598,-14.596 11.446,-13.837 L 11.446,-13.837 M 10.376,-10.353 C 10.376,-12.154 9.319,-13.106 7.205,-13.208 L 4.925,-13.177 L 4.895,-6.959 L 7.409,-6.913 C 9.388,-7.246 10.377,-8.391 10.377,-10.349 L 10.377,-10.349 " style="fill: #f9f6f6; fill-opacity: 1.0; stroke: none" transform="matrix(1.0,0.0,0.0,1.0,110.0,27.0)"/>
<path id="id2fa1ed07df34f8270fbc3cf9" d="M 12,-1.734 L 11.799,0 L 2.706,0 L 2.798,-4.5 L 2.706,-14.937 L 11.846,-14.937 L 12.002,-14.768 L 11.817,-13.018 L 8.052,-13.143 L 4.927,-13.112 L 4.897,-8.583 L 7.865,-8.552 L 10.472,-8.644 L 10.628,-8.443 L 10.443,-6.663 L 7.693,-6.754 L 4.898,-6.724 L 4.868,-4.694 L 4.898,-1.835 L 7.834,-1.805 L 11.818,-1.93 L 12.003,-1.743 L 12.003,-1.743 " style="fill: #f9f6f6; fill-opacity: 1.0; stroke: none" transform="matrix(1.0,0.0,0.0,1.0,97.0,27.0)"/>
<path id="id43df175404e87da78278aa6d" d="M 13.625,-0.546 L 13.594,-0.234 C 12.751,0.026 12.059,0.171 11.518,0.202 L 11.128,-0.032 C 9.609,-2.334 8.465,-4.141 7.696,-5.453 L 4.869,-5.439 L 4.869,-4.689 L 4.931,-0.002 L 2.713,-0.002 L 2.805,-4.502 L 2.713,-14.938 L 7.806,-14.969 C 9.387,-14.969 10.601,-14.601 11.449,-13.862 C 12.297,-13.123 12.72,-12.056 12.72,-10.662 C 12.72,-9.643 12.445,-8.733 11.894,-7.932 C 11.343,-7.131 10.568,-6.503 9.568,-6.045 C 10.795,-4.183 12.147,-2.355 13.624,-0.564 L 13.624,-0.564 M 7.703,-7.218 C 9.483,-7.718 10.373,-8.804 10.373,-10.48 C 10.373,-11.364 10.114,-12.024 9.595,-12.459 C 9.076,-12.894 8.291,-13.133 7.24,-13.174 L 4.929,-13.143 L 4.899,-7.3 L 7.711,-7.209 L 7.711,-7.209 " style="fill: #f9f6f6; fill-opacity: 1.0; stroke: none" transform="matrix(1.0,0.0,0.0,1.0,82.0,27.0)"/>
<path id="id26d3b64815fc339c7aa81917" d="M 13.601,-13.203 C 14.771,-11.922 15.354,-10.111 15.354,-7.768 C 15.354,-5.227 14.729,-3.264 13.479,-1.879 C 12.229,-0.494 10.444,0.198 8.123,0.198 C 5.967,0.198 4.298,-0.455 3.116,-1.762 C 1.934,-3.068 1.343,-4.928 1.343,-7.344 C 1.343,-9.821 1.973,-11.737 3.233,-13.089 C 4.492,-14.441 6.272,-15.117 8.574,-15.117 C 10.75,-15.117 12.423,-14.477 13.593,-13.196 L 13.593,-13.196 M 4.836,-11.876 C 4.067,-10.976 3.684,-9.557 3.684,-7.62 C 3.684,-5.537 4.063,-4.029 4.822,-3.092 C 5.581,-2.155 6.742,-1.687 8.303,-1.687 C 9.896,-1.687 11.082,-2.145 11.863,-3.06 C 12.644,-3.975 13.034,-5.412 13.034,-7.37 C 13.034,-9.39 12.65,-10.87 11.881,-11.812 C 11.112,-12.754 9.942,-13.225 8.37,-13.225 C 6.787,-13.225 5.611,-12.777 4.842,-11.877 L 4.842,-11.877 " style="fill: #f9f6f6; fill-opacity: 1.0; stroke: none" transform="matrix(1.0,0.0,0.0,1.0,60.0,27.0)"/>
<path id="id25a30b3c89d425515550f796" d="M 12,-12.875 L 9.205,-13.076 L 7.705,-13.076 L 7.627,-4.686 L 7.705,0.001 L 5.455,0.001 L 5.546,-4.499 L 5.484,-13.077 L 3.984,-13.077 L 1.141,-12.876 L 0.954,-13.077 L 1.141,-14.936 L 12.031,-14.936 L 12.156,-14.767 L 12,-12.877 L 12,-12.877 " style="fill: #f9f6f6; fill-opacity: 1.0; stroke: none" transform="matrix(1.0,0.0,0.0,1.0,47.0,27.0)"/><path id="idb9678177e5049bc85919f5fa" d="M 7.984,0 L 5.734,0 L 5.812,-4.296 L 5.812,-5.185 L 0.75,-14.935 L 3.187,-14.935 L 3.513,-14.06 L 6.841,-7.654 L 6.98,-7.654 L 10.65,-13.982 L 11.056,-14.934 L 13.431,-14.934 L 7.916,-5.216 L 7.886,-4.295 L 7.977,0.001 L 7.977,0.001 " style="fill: #f9f6f6; fill-opacity: 1.0; stroke: none" transform="matrix(1.0,0.0,0.0,1.0,28.0,27.0)"/>
<path id="idf54fd8a950fab6e6939c901c" d="M 13.625,-0.546 L 13.594,-0.234 C 12.751,0.026 12.059,0.171 11.518,0.202 L 11.128,-0.032 C 9.609,-2.334 8.465,-4.141 7.696,-5.453 L 4.869,-5.439 L 4.869,-4.689 L 4.931,-0.002 L 2.713,-0.002 L 2.805,-4.502 L 2.713,-14.938 L 7.806,-14.969 C 9.387,-14.969 10.601,-14.601 11.449,-13.862 C 12.297,-13.123 12.72,-12.056 12.72,-10.662 C 12.72,-9.643 12.445,-8.733 11.894,-7.932 C 11.343,-7.131 10.568,-6.503 9.568,-6.045 C 10.795,-4.183 12.147,-2.355 13.624,-0.564 L 13.624,-0.564 M 7.703,-7.218 C 9.483,-7.718 10.373,-8.804 10.373,-10.48 C 10.373,-11.364 10.114,-12.024 9.595,-12.459 C 9.076,-12.894 8.291,-13.133 7.24,-13.174 L 4.929,-13.143 L 4.899,-7.3 L 7.711,-7.209 L 7.711,-7.209 " style="fill: #f9f6f6; fill-opacity: 1.0; stroke: none" transform="matrix(1.0,0.0,0.0,1.0,13.0,27.0)"/>
<path id="id582a50161d8fbb5f71ff975a" d="M 12,-12.875 L 9.205,-13.076 L 7.705,-13.076 L 7.627,-4.686 L 7.705,0.001 L 5.455,0.001 L 5.546,-4.499 L 5.484,-13.077 L 3.984,-13.077 L 1.141,-12.876 L 0.954,-13.077 L 1.141,-14.936 L 12.031,-14.936 L 12.156,-14.767 L 12,-12.877 L 12,-12.877 " style="fill: #f9f6f6; fill-opacity: 1.0; stroke: none" transform="matrix(1.0,0.0,0.0,1.0,0.0,27.0)"/></g></g></g></svg>
